<svg xmlns="http://www.w3.org/2000/svg" viewBox="0 0 200 60">
  <g fill="#1A171B">
    <path d="M30.5,10c-11,0-20,9-20,20s9,20,20,20s20-9,20-20S41.5,10,30.5,10z M30.5,45c-8.3,0-15-6.7-15-15s6.7-15,15-15s15,6.7,15,15S38.8,45,30.5,45z"/>
    <path d="M60.5,15h5v25h-5V15z"/>
    <path d="M75.5,15h5v4h0.1c1.7-3,4.9-4.5,8.4-4.5c3.5,0,6.4,1.2,8.5,3.7c2.1,2.5,3.1,5.8,3.1,9.8c0,4-1,7.3-3.1,9.8c-2.1,2.5-4.9,3.7-8.5,3.7c-3.5,0-6.7-1.5-8.4-4.5h-0.1v15h-5V15z M88.5,37c2,0,3.7-0.8,4.9-2.3c1.2-1.5,1.8-3.6,1.8-6.2c0-2.6-0.6-4.7-1.8-6.2c-1.2-1.5-2.9-2.3-4.9-2.3c-2,0-3.7,0.8-4.9,2.3c-1.2,1.5-1.8,3.6-1.8,6.2c0,2.6,0.6,4.7,1.8,6.2C84.8,36.2,86.5,37,88.5,37z"/>
    <path d="M110.5,15h5v4h0.1c1.7-3,4.9-4.5,8.4-4.5c3.5,0,6.4,1.2,8.5,3.7c2.1,2.5,3.1,5.8,3.1,9.8c0,4-1,7.3-3.1,9.8c-2.1,2.5-4.9,3.7-8.5,3.7c-3.5,0-6.7-1.5-8.4-4.5h-0.1v15h-5V15z M123.5,37c2,0,3.7-0.8,4.9-2.3c1.2-1.5,1.8-3.6,1.8-6.2c0-2.6-0.6-4.7-1.8-6.2c-1.2-1.5-2.9-2.3-4.9-2.3c-2,0-3.7,0.8-4.9,2.3c-1.2,1.5-1.8,3.6-1.8,6.2c0,2.6,0.6,4.7,1.8,6.2C119.8,36.2,121.5,37,123.5,37z"/>
    <path d="M145.5,15h5v3h0.1c1.5-2.3,4.2-3.5,7.9-3.5c5.8,0,8.7,3.1,8.7,9.2v16.3h-5V25.2c0-4.1-1.9-6.2-5.7-6.2c-1.9,0-3.4,0.6-4.5,1.8c-1.1,1.2-1.6,2.7-1.6,4.5v14.7h-5V15z"/>
    <path d="M175.5,10h5v5h-5V10z M175.5,15h5v25h-5V15z"/>
    <path d="M190.5,15h5v3h0.1c1.5-2.3,4.2-3.5,7.9-3.5c5.8,0,8.7,3.1,8.7,9.2v16.3h-5V25.2c0-4.1-1.9-6.2-5.7-6.2c-1.9,0-3.4,0.6-4.5,1.8c-1.1,1.2-1.6,2.7-1.6,4.5v14.7h-5V15z"/>
  </g>
</svg>